<svg width="179" height="39" viewBox="0 0 179 39" fill="none" xmlns="http://www.w3.org/2000/svg">
<path d="M14.243 1.0176C16.1691 1.01421 18.0758 1.42407 19.8479 2.22239C21.62 3.02071 23.2206 4.19091 24.5529 5.66221C24.7078 5.83674 24.826 6.04396 24.8998 6.27028C24.9736 6.49659 25.0012 6.73686 24.981 6.97529C24.9607 7.21372 24.8929 7.44491 24.7821 7.65365C24.6713 7.8624 24.52 8.04398 24.3381 8.18645L22.9491 9.26176C22.6295 9.50506 22.2369 9.61675 21.845 9.57586C21.4532 9.53496 21.0888 9.34432 20.8203 9.03964C19.986 8.0936 18.9808 7.33408 17.8642 6.806C16.7476 6.27792 15.5422 5.99198 14.3193 5.9651C9.24074 5.9651 5.25042 9.88777 5.25042 15.6228C5.25042 21.4387 9.3362 25.3159 14.3193 25.3159C15.5566 25.3298 16.7832 25.0733 17.9224 24.5625C19.0616 24.0517 20.0888 23.2976 20.9396 22.3474C21.2066 22.0343 21.5734 21.8364 21.9698 21.7917C22.3661 21.747 22.7642 21.8586 23.0875 22.1051L24.4765 23.1804C24.6597 23.3214 24.8127 23.5017 24.9252 23.7097C25.0378 23.9177 25.1074 24.1485 25.1295 24.387C25.1516 24.6255 25.1257 24.8662 25.0534 25.0933C24.9812 25.3205 24.8643 25.5288 24.7104 25.7047C23.3802 27.1915 21.7741 28.372 19.9926 29.172C18.2112 29.9721 16.2928 30.3746 14.3575 30.3543C5.95684 30.3543 0 23.9326 0 15.6531C0 7.56042 5.99502 1.0176 14.243 1.0176Z" fill="#1A73E8"/>
<path d="M37.7648 30.3802C31.8079 30.3802 26.9203 25.4529 26.9203 19.3948C26.9203 13.3366 31.8079 8.40928 37.7648 8.40928C43.7216 8.40928 48.6093 13.2962 48.6093 19.3948C48.6093 25.4933 43.7598 30.3802 37.7648 30.3802ZM37.7648 13.0943C36.5835 13.0782 35.4244 13.4341 34.4348 14.1166C33.4452 14.7991 32.6698 15.7774 32.2072 16.9272C31.7446 18.0769 31.6157 19.3462 31.8369 20.5737C32.058 21.8011 32.6192 22.9313 33.4492 23.8205C34.2792 24.7098 35.3404 25.3179 36.4979 25.5676C37.6555 25.8174 38.8571 25.6974 39.95 25.223C41.0429 24.7486 41.9778 23.9412 42.6358 22.9034C43.2938 21.8656 43.6452 20.6443 43.6453 19.3948C43.6528 18.5719 43.5064 17.7557 43.2145 16.9929C42.9226 16.2302 42.491 15.536 41.9444 14.9504C41.3979 14.3648 40.7472 13.8994 40.0299 13.5808C39.3126 13.2622 38.5428 13.0969 37.7648 13.0943Z" fill="#1A73E8"/>
<path d="M54.7189 29.8109H52.9624C52.7518 29.8109 52.5433 29.7671 52.3487 29.6818C52.1541 29.5966 51.9773 29.4717 51.8284 29.3141C51.6795 29.1566 51.5613 28.9696 51.4807 28.7638C51.4001 28.558 51.3587 28.3374 51.3587 28.1147V10.6267C51.358 10.4038 51.3991 10.1829 51.4795 9.9768C51.5598 9.77069 51.6779 9.58342 51.827 9.42578C51.976 9.26813 52.1531 9.14321 52.3479 9.0582C52.5428 8.97319 52.7516 8.92977 52.9624 8.93043H54.7189C54.9297 8.92977 55.1385 8.97319 55.3334 9.0582C55.5283 9.14321 55.7053 9.26813 55.8544 9.42578C56.0034 9.58342 56.1215 9.77069 56.2019 9.9768C56.2823 10.1829 56.3233 10.4038 56.3227 10.6267C57.74 9.16085 59.6482 8.34774 61.6304 8.36501C62.9222 8.32081 64.2023 8.63721 65.3418 9.28238C66.4814 9.92756 67.4402 10.8788 68.1218 12.0403C68.786 10.8986 69.7197 9.95935 70.8311 9.31496C71.9424 8.67056 73.1933 8.34317 74.4605 8.36501C78.9663 8.36501 81.9829 11.8989 81.9829 16.3618V28.1147C81.9829 28.5645 81.814 28.996 81.5132 29.3141C81.2124 29.6323 80.8045 29.8109 80.3792 29.8109H78.6227C78.1977 29.8096 77.7905 29.6305 77.49 29.3127C77.1895 28.9948 77.0201 28.5641 77.0189 28.1147V17.4523C77.0189 14.8674 75.4151 13.0904 73.0859 13.0904C70.7566 13.0904 69.1528 14.7867 69.1528 17.4523V19.5322C69.1528 19.9821 68.9838 20.4136 68.6831 20.7317C68.3823 21.0498 67.9744 21.2285 67.549 21.2285H65.7925C65.3672 21.2285 64.9593 21.0498 64.6585 20.7317C64.3577 20.4136 64.1888 19.9821 64.1888 19.5322V17.4523C64.1888 14.8674 62.585 13.0904 60.2557 13.0904C57.9265 13.0904 56.3227 14.7867 56.3227 17.4523V28.1147C56.3227 28.5645 56.1537 28.996 55.853 29.3141C55.5522 29.6323 55.1443 29.8109 54.7189 29.8109Z" fill="#1A73E8"/>
<path d="M90.4218 10.6288V10.9115C92.1945 9.29216 94.4564 8.39681 96.7987 8.3873C99.5533 8.3873 102.195 9.5447 104.143 11.6049C106.091 13.6651 107.185 16.4593 107.185 19.3728C107.185 22.2863 106.091 25.0805 104.143 27.1407C102.195 29.2009 99.5533 30.3583 96.7987 30.3583C94.4784 30.3514 92.2344 29.481 90.46 27.8997V36.5831C90.46 37.033 90.291 37.4644 89.9903 37.7825C89.6895 38.1006 89.2816 38.2794 88.8562 38.2794H87.0425C86.6171 38.2794 86.2092 38.1006 85.9084 37.7825C85.6077 37.4644 85.4387 37.033 85.4387 36.5831V10.6288C85.4381 10.4059 85.4791 10.185 85.5595 9.9789C85.6399 9.77279 85.758 9.58552 85.907 9.42787C86.0561 9.27023 86.2331 9.14531 86.428 9.0603C86.6228 8.97529 86.8317 8.93187 87.0425 8.93253H88.799C89.0114 8.92918 89.2222 8.97062 89.4193 9.05443C89.6164 9.13824 89.7957 9.26273 89.9468 9.42065C90.0979 9.57857 90.2177 9.76674 90.2993 9.97418C90.3808 10.1816 90.4225 10.4042 90.4218 10.6288ZM96.3787 25.7339C97.5698 25.7379 98.7352 25.3677 99.7271 24.6703C100.719 23.9728 101.493 22.9796 101.95 21.8164C102.408 20.6533 102.529 19.3726 102.297 18.1368C102.066 16.901 101.493 15.7657 100.65 14.8749C99.8081 13.984 98.7348 13.3778 97.5664 13.133C96.398 12.8882 95.1871 13.0159 94.0874 13.4998C92.9877 13.9838 92.0486 14.8022 91.3893 15.8514C90.7299 16.9005 90.3799 18.1332 90.3837 19.393C90.3818 20.2262 90.5355 21.0517 90.8362 21.8219C91.1368 22.5921 91.5783 23.2919 92.1353 23.8811C92.6924 24.4703 93.354 24.9373 94.0822 25.2553C94.8104 25.5732 95.5909 25.7359 96.3787 25.7339Z" fill="#1A73E8"/>
<path d="M115.051 17.7381L120.855 17.2938V16.486C120.855 14.4263 119.557 13.1742 117.227 13.1742C115.856 13.1797 114.506 13.5384 113.294 14.2193C112.931 14.4144 112.511 14.4563 112.119 14.3363C111.727 14.2163 111.393 13.9435 111.185 13.5731L110.684 12.6744C110.575 12.4798 110.503 12.2641 110.474 12.04C110.445 11.8158 110.458 11.5878 110.513 11.3692C110.569 11.1506 110.664 10.9458 110.795 10.7669C110.926 10.5879 111.089 10.4383 111.275 10.3269C113.271 9.10662 115.538 8.47059 117.843 8.4842C122.578 8.4842 125.709 11.3972 125.709 15.8398V24.0386C125.709 24.705 125.743 25.2502 126.378 25.2502C126.641 25.2502 126.893 25.3608 127.08 25.5578C127.266 25.7547 127.37 26.0218 127.37 26.3003V28.764C127.37 28.9019 127.345 29.0384 127.295 29.1658C127.245 29.2932 127.172 29.409 127.08 29.5065C126.987 29.604 126.878 29.6813 126.757 29.7341C126.637 29.7869 126.508 29.814 126.378 29.814H125.518C123.609 29.814 122.177 28.8851 121.471 27.3504C120.726 28.3229 119.778 29.0991 118.701 29.6178C117.624 30.1365 116.448 30.3834 115.266 30.3391C111.333 30.3391 108.431 27.6331 108.431 23.9578C108.445 20.2017 110.851 18.0612 115.051 17.7381ZM116.387 26.3205C118.869 26.3205 120.855 24.6242 120.855 22.524V21.1912L115.738 21.6961C114.058 21.8576 113.218 22.5846 113.218 23.9578C113.218 25.3764 114.516 26.3003 116.387 26.3003V26.3205Z" fill="#1A73E8"/>
<path d="M146.745 29.8134H144.95C144.524 29.8134 144.117 29.6347 143.816 29.3166C143.515 28.9985 143.346 28.567 143.346 28.1171V17.5759C143.346 14.8699 141.704 13.0928 139.26 13.0928C136.816 13.0928 135.136 14.7891 135.136 17.5759V28.1171C135.135 28.5666 134.966 28.9973 134.665 29.3151C134.365 29.6329 133.958 29.8121 133.533 29.8134H131.738C131.527 29.8134 131.319 29.7695 131.124 29.6843C130.93 29.599 130.753 29.4741 130.604 29.3166C130.455 29.1591 130.337 28.9721 130.256 28.7663C130.176 28.5605 130.134 28.3399 130.134 28.1171V10.6292C130.133 10.4062 130.175 10.1854 130.255 9.97925C130.335 9.77315 130.453 9.58588 130.602 9.42823C130.751 9.27058 130.929 9.14567 131.123 9.06065C131.318 8.97564 131.527 8.93222 131.738 8.93289H133.533C133.958 8.93289 134.366 9.11161 134.667 9.42972C134.967 9.74784 135.136 10.1793 135.136 10.6292V10.7352C135.844 9.9778 136.689 9.37977 137.621 8.97718C138.553 8.57459 139.552 8.37576 140.559 8.39269C145.179 8.39269 148.348 11.9872 148.348 16.551V28.1626C148.337 28.6045 148.163 29.0244 147.864 29.3327C147.564 29.6411 147.163 29.8136 146.745 29.8134Z" fill="#1A73E8"/>
<path d="M157.513 29.4133L150.086 11.3044C149.979 11.0466 149.935 10.7649 149.958 10.4847C149.98 10.2044 150.069 9.93459 150.215 9.69951C150.361 9.46444 150.56 9.27157 150.794 9.13837C151.028 9.00517 151.29 8.93584 151.556 8.93665H153.417C153.736 8.93496 154.047 9.03407 154.312 9.22121C154.576 9.40836 154.782 9.67496 154.902 9.98673L159.956 23.032L164.935 9.99683C165.054 9.68398 165.26 9.41598 165.524 9.22713C165.788 9.03827 166.1 8.93713 166.419 8.93665H168.142C168.405 8.93671 168.664 9.00519 168.896 9.13606C169.128 9.26693 169.327 9.45616 169.473 9.68709C169.62 9.91803 169.711 10.1836 169.737 10.4603C169.764 10.7371 169.726 11.0165 169.627 11.2741L160.911 33.7348C159.613 37.1274 157.933 38.2784 154.916 38.2784H150.716C150.505 38.2784 150.297 38.2346 150.102 38.1493C149.907 38.0641 149.731 37.9391 149.582 37.7816C149.433 37.6241 149.315 37.4371 149.234 37.2313C149.153 37.0255 149.112 36.8049 149.112 36.5821V35.532C149.111 35.3091 149.152 35.0882 149.233 34.8821C149.313 34.676 149.431 34.4887 149.58 34.3311C149.729 34.1734 149.906 34.0485 150.101 33.9635C150.296 33.8785 150.505 33.8351 150.716 33.8358H153.866C155.241 33.8358 155.966 33.3309 156.577 31.7356L157.513 29.4133Z" fill="#1A73E8"/>
<path d="M175.5 7.75009C177.262 7.75009 178.691 6.23903 178.691 4.37504C178.691 2.51106 177.262 1 175.5 1C173.738 1 172.309 2.51106 172.309 4.37504C172.309 6.23903 173.738 7.75009 175.5 7.75009Z" fill="#1A73E8"/>
<path d="M14.243 1.0176C16.1691 1.01421 18.0758 1.42407 19.8479 2.22239C21.62 3.02071 23.2206 4.19091 24.5529 5.66221C24.7078 5.83674 24.826 6.04396 24.8998 6.27028C24.9736 6.49659 25.0012 6.73686 24.981 6.97529C24.9607 7.21372 24.8929 7.44491 24.7821 7.65365C24.6713 7.8624 24.52 8.04398 24.3381 8.18645L22.9491 9.26176C22.6295 9.50506 22.2369 9.61675 21.845 9.57586C21.4532 9.53496 21.0888 9.34432 20.8203 9.03964C19.986 8.0936 18.9808 7.33408 17.8642 6.806C16.7476 6.27792 15.5422 5.99198 14.3193 5.9651C9.24074 5.9651 5.25042 9.88777 5.25042 15.6228C5.25042 21.4387 9.3362 25.3159 14.3193 25.3159C15.5566 25.3298 16.7832 25.0733 17.9224 24.5625C19.0616 24.0517 20.0888 23.2976 20.9396 22.3474C21.2066 22.0343 21.5734 21.8364 21.9698 21.7917C22.3661 21.747 22.7642 21.8586 23.0875 22.1051L24.4765 23.1804C24.6597 23.3214 24.8127 23.5017 24.9252 23.7097C25.0378 23.9177 25.1074 24.1485 25.1295 24.387C25.1516 24.6255 25.1257 24.8662 25.0534 25.0933C24.9812 25.3205 24.8643 25.5288 24.7104 25.7047C23.3802 27.1915 21.7741 28.372 19.9926 29.172C18.2112 29.9721 16.2928 30.3746 14.3575 30.3543C5.95684 30.3543 0 23.9326 0 15.6531C0 7.56042 5.99502 1.0176 14.243 1.0176Z" stroke="#1A73E8" stroke-width="0.380953"/>
<path d="M37.7648 30.3802C31.8079 30.3802 26.9203 25.4529 26.9203 19.3948C26.9203 13.3366 31.8079 8.40928 37.7648 8.40928C43.7216 8.40928 48.6093 13.2962 48.6093 19.3948C48.6093 25.4933 43.7598 30.3802 37.7648 30.3802ZM37.7648 13.0943C36.5835 13.0782 35.4244 13.4341 34.4348 14.1166C33.4452 14.7991 32.6698 15.7774 32.2072 16.9272C31.7446 18.0769 31.6157 19.3462 31.8369 20.5737C32.058 21.8011 32.6192 22.9313 33.4492 23.8205C34.2792 24.7098 35.3404 25.3179 36.4979 25.5676C37.6555 25.8174 38.8571 25.6974 39.95 25.223C41.0429 24.7486 41.9778 23.9412 42.6358 22.9034C43.2938 21.8656 43.6452 20.6443 43.6453 19.3948C43.6528 18.5719 43.5064 17.7557 43.2145 16.9929C42.9226 16.2302 42.491 15.536 41.9444 14.9504C41.3979 14.3648 40.7472 13.8994 40.0299 13.5808C39.3126 13.2622 38.5428 13.0969 37.7648 13.0943Z" stroke="#1A73E8" stroke-width="0.380953"/>
<path d="M54.7189 29.8109H52.9624C52.7518 29.8109 52.5433 29.7671 52.3487 29.6818C52.1541 29.5966 51.9773 29.4717 51.8284 29.3141C51.6795 29.1566 51.5613 28.9696 51.4807 28.7638C51.4001 28.558 51.3587 28.3374 51.3587 28.1147V10.6267C51.358 10.4038 51.3991 10.1829 51.4795 9.9768C51.5598 9.77069 51.6779 9.58342 51.827 9.42578C51.976 9.26813 52.1531 9.14321 52.3479 9.0582C52.5428 8.97319 52.7516 8.92977 52.9624 8.93043H54.7189C54.9297 8.92977 55.1385 8.97319 55.3334 9.0582C55.5283 9.14321 55.7053 9.26813 55.8544 9.42578C56.0034 9.58342 56.1215 9.77069 56.2019 9.9768C56.2823 10.1829 56.3233 10.4038 56.3227 10.6267C57.74 9.16085 59.6482 8.34774 61.6304 8.36501C62.9222 8.32081 64.2023 8.63721 65.3418 9.28238C66.4814 9.92756 67.4402 10.8788 68.1218 12.0403C68.786 10.8986 69.7197 9.95935 70.8311 9.31496C71.9424 8.67056 73.1933 8.34317 74.4605 8.36501C78.9663 8.36501 81.9829 11.8989 81.9829 16.3618V28.1147C81.9829 28.5645 81.814 28.996 81.5132 29.3141C81.2124 29.6323 80.8045 29.8109 80.3792 29.8109H78.6227C78.1977 29.8096 77.7905 29.6305 77.49 29.3127C77.1895 28.9948 77.0201 28.5641 77.0189 28.1147V17.4523C77.0189 14.8674 75.4151 13.0904 73.0859 13.0904C70.7566 13.0904 69.1528 14.7867 69.1528 17.4523V19.5322C69.1528 19.9821 68.9838 20.4136 68.6831 20.7317C68.3823 21.0498 67.9744 21.2285 67.549 21.2285H65.7925C65.3672 21.2285 64.9593 21.0498 64.6585 20.7317C64.3577 20.4136 64.1888 19.9821 64.1888 19.5322V17.4523C64.1888 14.8674 62.585 13.0904 60.2557 13.0904C57.9265 13.0904 56.3227 14.7867 56.3227 17.4523V28.1147C56.3227 28.5645 56.1537 28.996 55.853 29.3141C55.5522 29.6323 55.1443 29.8109 54.7189 29.8109Z" stroke="#1A73E8" stroke-width="0.380953"/>
<path d="M90.4218 10.6288V10.9115C92.1945 9.29216 94.4564 8.39681 96.7987 8.3873C99.5533 8.3873 102.195 9.5447 104.143 11.6049C106.091 13.6651 107.185 16.4593 107.185 19.3728C107.185 22.2863 106.091 25.0805 104.143 27.1407C102.195 29.2009 99.5533 30.3583 96.7987 30.3583C94.4784 30.3514 92.2344 29.481 90.46 27.8997V36.5831C90.46 37.033 90.291 37.4644 89.9903 37.7825C89.6895 38.1006 89.2816 38.2794 88.8562 38.2794H87.0425C86.6171 38.2794 86.2092 38.1006 85.9084 37.7825C85.6077 37.4644 85.4387 37.033 85.4387 36.5831V10.6288C85.4381 10.4059 85.4791 10.185 85.5595 9.9789C85.6399 9.77279 85.758 9.58552 85.907 9.42787C86.0561 9.27023 86.2331 9.14531 86.428 9.0603C86.6228 8.97529 86.8317 8.93187 87.0425 8.93253H88.799C89.0114 8.92918 89.2222 8.97062 89.4193 9.05443C89.6164 9.13824 89.7957 9.26273 89.9468 9.42065C90.0979 9.57857 90.2177 9.76674 90.2993 9.97418C90.3808 10.1816 90.4225 10.4042 90.4218 10.6288ZM96.3787 25.7339C97.5698 25.7379 98.7352 25.3677 99.7271 24.6703C100.719 23.9728 101.493 22.9796 101.95 21.8164C102.408 20.6533 102.529 19.3726 102.297 18.1368C102.066 16.901 101.493 15.7657 100.65 14.8749C99.8081 13.984 98.7348 13.3778 97.5664 13.133C96.398 12.8882 95.1871 13.0159 94.0874 13.4998C92.9877 13.9838 92.0486 14.8022 91.3893 15.8514C90.7299 16.9005 90.3799 18.1332 90.3837 19.393C90.3818 20.2262 90.5355 21.0517 90.8362 21.8219C91.1368 22.5921 91.5783 23.2919 92.1353 23.8811C92.6924 24.4703 93.354 24.9373 94.0822 25.2553C94.8104 25.5732 95.5909 25.7359 96.3787 25.7339Z" stroke="#1A73E8" stroke-width="0.380953"/>
<path d="M115.051 17.7381L120.855 17.2938V16.486C120.855 14.4263 119.557 13.1742 117.227 13.1742C115.856 13.1797 114.506 13.5384 113.294 14.2193C112.931 14.4144 112.511 14.4563 112.119 14.3363C111.727 14.2163 111.393 13.9435 111.185 13.5731L110.684 12.6744C110.575 12.4798 110.503 12.2641 110.474 12.04C110.445 11.8158 110.458 11.5878 110.513 11.3692C110.569 11.1506 110.664 10.9458 110.795 10.7669C110.926 10.5879 111.089 10.4383 111.275 10.3269C113.271 9.10662 115.538 8.47059 117.843 8.4842C122.578 8.4842 125.709 11.3972 125.709 15.8398V24.0386C125.709 24.705 125.743 25.2502 126.378 25.2502C126.641 25.2502 126.893 25.3608 127.08 25.5578C127.266 25.7547 127.37 26.0218 127.37 26.3003V28.764C127.37 28.9019 127.345 29.0384 127.295 29.1658C127.245 29.2932 127.172 29.409 127.08 29.5065C126.987 29.604 126.878 29.6813 126.757 29.7341C126.637 29.7869 126.508 29.814 126.378 29.814H125.518C123.609 29.814 122.177 28.8851 121.471 27.3504C120.726 28.3229 119.778 29.0991 118.701 29.6178C117.624 30.1365 116.448 30.3834 115.266 30.3391C111.333 30.3391 108.431 27.6331 108.431 23.9578C108.445 20.2017 110.851 18.0612 115.051 17.7381ZM116.387 26.3205C118.869 26.3205 120.855 24.6242 120.855 22.524V21.1912L115.738 21.6961C114.058 21.8576 113.218 22.5846 113.218 23.9578C113.218 25.3764 114.516 26.3003 116.387 26.3003V26.3205Z" stroke="#1A73E8" stroke-width="0.380953"/>
<path d="M146.745 29.8134H144.95C144.524 29.8134 144.117 29.6347 143.816 29.3166C143.515 28.9985 143.346 28.567 143.346 28.1171V17.5759C143.346 14.8699 141.704 13.0928 139.26 13.0928C136.816 13.0928 135.136 14.7891 135.136 17.5759V28.1171C135.135 28.5666 134.966 28.9973 134.665 29.3151C134.365 29.6329 133.958 29.8121 133.533 29.8134H131.738C131.527 29.8134 131.319 29.7695 131.124 29.6843C130.93 29.599 130.753 29.4741 130.604 29.3166C130.455 29.1591 130.337 28.9721 130.256 28.7663C130.176 28.5605 130.134 28.3399 130.134 28.1171V10.6292C130.133 10.4062 130.175 10.1854 130.255 9.97925C130.335 9.77315 130.453 9.58588 130.602 9.42823C130.751 9.27058 130.929 9.14567 131.123 9.06065C131.318 8.97564 131.527 8.93222 131.738 8.93289H133.533C133.958 8.93289 134.366 9.11161 134.667 9.42972C134.967 9.74784 135.136 10.1793 135.136 10.6292V10.7352C135.844 9.9778 136.689 9.37977 137.621 8.97718C138.553 8.57459 139.552 8.37576 140.559 8.39269C145.179 8.39269 148.348 11.9872 148.348 16.551V28.1626C148.337 28.6045 148.163 29.0244 147.864 29.3327C147.564 29.6411 147.163 29.8136 146.745 29.8134Z" stroke="#1A73E8" stroke-width="0.380953"/>
<path d="M157.513 29.4133L150.086 11.3044C149.979 11.0466 149.935 10.7649 149.958 10.4847C149.98 10.2044 150.069 9.93459 150.215 9.69951C150.361 9.46444 150.56 9.27157 150.794 9.13837C151.028 9.00517 151.29 8.93584 151.556 8.93665H153.417C153.736 8.93496 154.047 9.03407 154.312 9.22121C154.576 9.40836 154.782 9.67496 154.902 9.98673L159.956 23.032L164.935 9.99683C165.054 9.68398 165.26 9.41598 165.524 9.22713C165.788 9.03827 166.1 8.93713 166.419 8.93665H168.142C168.405 8.93671 168.664 9.00519 168.896 9.13606C169.128 9.26693 169.327 9.45616 169.473 9.68709C169.62 9.91803 169.711 10.1836 169.737 10.4603C169.764 10.7371 169.726 11.0165 169.627 11.2741L160.911 33.7348C159.613 37.1274 157.933 38.2784 154.916 38.2784H150.716C150.505 38.2784 150.297 38.2346 150.102 38.1493C149.907 38.0641 149.731 37.9391 149.582 37.7816C149.433 37.6241 149.315 37.4371 149.234 37.2313C149.153 37.0255 149.112 36.8049 149.112 36.5821V35.532C149.111 35.3091 149.152 35.0882 149.233 34.8821C149.313 34.676 149.431 34.4887 149.58 34.3311C149.729 34.1734 149.906 34.0485 150.101 33.9635C150.296 33.8785 150.505 33.8351 150.716 33.8358H153.866C155.241 33.8358 155.966 33.3309 156.577 31.7356L157.513 29.4133Z" stroke="#1A73E8" stroke-width="0.380953"/>
<path d="M175.5 7.75009C177.262 7.75009 178.691 6.23903 178.691 4.37504C178.691 2.51106 177.262 1 175.5 1C173.738 1 172.309 2.51106 172.309 4.37504C172.309 6.23903 173.738 7.75009 175.5 7.75009Z" stroke="#1A73E8" stroke-width="0.380953"/>
</svg>
